<svg width="21" height="21" viewBox="0 0 21 21" fill="none" xmlns="http://www.w3.org/2000/svg">
<path opacity="0.1" d="M4.47016 9.61785C4.65479 11.3275 4.74711 12.1823 5.30629 12.6972C5.86546 13.2121 6.70147 13.2121 8.37347 13.2121H8.4969H12.1932H13.525C14.6769 13.2121 15.2527 13.2121 15.7201 12.9226C16.1874 12.6331 16.457 12.1095 16.9959 11.0622L19.4193 6.35297C19.9403 5.34038 19.2268 4.12119 18.1131 4.12119H8.4969H8.26438C6.21657 4.12119 5.19266 4.12119 4.60725 4.79407C4.02184 5.46695 4.13492 6.51389 4.36106 8.60775L4.47016 9.61785Z" fill="#EF6498"/>
<path d="M4.47016 9.61785C4.65479 11.3275 4.74711 12.1823 5.30629 12.6972C5.86546 13.2121 6.70147 13.2121 8.37347 13.2121H8.4969H12.1932H13.525C14.6769 13.2121 15.2527 13.2121 15.7201 12.9226C16.1874 12.6331 16.457 12.1095 16.9959 11.0622L19.4193 6.35297C19.9403 5.34038 19.2268 4.12119 18.1131 4.12119H8.4969H8.26438C6.21657 4.12119 5.19266 4.12119 4.60725 4.79407C4.02184 5.46695 4.13492 6.51389 4.36106 8.60775L4.47016 9.61785Z" stroke="#EF6498" stroke-width="2.0202" stroke-linejoin="round"/>
<path d="M1.91309 1.09091H2.404C3.05614 1.09091 3.60398 1.59538 3.676 2.26217L4.42225 9.17172" stroke="#EF6498" stroke-width="2.0202" stroke-linecap="round" stroke-linejoin="round"/>
<path d="M7.80488 17.7576C7.80488 18.5944 7.14551 19.2728 6.33213 19.2728C5.51875 19.2728 4.85938 18.5944 4.85938 17.7576C4.85938 16.9208 5.51875 16.2425 6.33213 16.2425C7.14551 16.2425 7.80488 16.9208 7.80488 17.7576Z" stroke="#EF6498" stroke-width="2.0202"/>
<path d="M16.6408 17.7576C16.6408 18.5944 15.9814 19.2728 15.1681 19.2728C14.3547 19.2728 13.6953 18.5944 13.6953 17.7576C13.6953 16.9208 14.3547 16.2425 15.1681 16.2425C15.9814 16.2425 16.6408 16.9208 16.6408 17.7576Z" stroke="#EF6498" stroke-width="2.0202"/>
</svg>
