<svg width="32" height="33" viewBox="0 0 32 33" fill="none" xmlns="http://www.w3.org/2000/svg">
<g clip-path="url(#clip0_2916_19554)">
<path fill-rule="evenodd" clip-rule="evenodd" d="M1.03136 16.4542C1.03136 8.21357 7.73565 1.50899 15.9763 1.50899C19.0529 1.49977 22.0561 2.44909 24.5685 4.22504L22.4792 7.06061C22.3568 7.22709 22.3453 7.4506 22.4501 7.62888C22.5553 7.80688 22.7563 7.90538 22.9614 7.8786L27.958 7.22968C28.0977 7.21183 28.2238 7.13752 28.3073 7.02432C28.3909 6.91084 28.4246 6.76856 28.4004 6.62973L27.5395 1.6651C27.5043 1.46118 27.3508 1.29816 27.1495 1.25063C26.9482 1.2034 26.7379 1.28059 26.6155 1.44706L25.1809 3.39409C19.3608 -0.703597 11.5321 -0.458203 5.98016 3.99606C0.427956 8.45003 -1.50928 16.0391 1.22866 22.6092C1.34041 22.8696 1.64082 22.9911 1.90205 22.882C2.16329 22.7728 2.28771 22.4735 2.18115 22.2112C1.41846 20.3877 1.02762 18.4306 1.03136 16.4542ZM30.0949 9.81676C29.8319 9.92678 29.7078 10.2289 29.8178 10.4919C30.5802 12.3153 30.971 14.2727 30.9673 16.2492C30.9673 24.4898 24.263 31.1943 16.0224 31.1943C12.9458 31.2035 9.94255 30.2542 7.43013 28.4783L9.51945 25.6427C9.64214 25.4762 9.65338 25.2527 9.54854 25.0747C9.4437 24.8964 9.24237 24.7982 9.0373 24.8247L4.04069 25.4736C3.901 25.4918 3.77485 25.5658 3.69132 25.6793C3.60779 25.7925 3.57409 25.935 3.59829 26.0736L4.4589 31.0382C4.49404 31.2421 4.64755 31.4052 4.84888 31.4527C5.05021 31.5002 5.26046 31.423 5.38316 31.2563L6.81751 29.3098C12.6376 33.4072 20.466 33.1618 26.0179 28.7078C31.5701 24.2539 33.5074 16.6651 30.7697 10.0947C30.6603 9.83145 30.3578 9.70702 30.0949 9.81676ZM6.56142 9.60299V20.9274C6.5617 21.3278 6.8863 21.6527 7.28694 21.653H8.37307C8.61991 20.3909 9.72591 19.4801 11.0119 19.4801C12.298 19.4801 13.404 20.3909 13.6508 21.653H16.6304V9.60299C16.6301 9.20235 16.3055 8.87775 15.9049 8.87746H7.28694C6.88659 8.87775 6.56199 9.20235 6.56142 9.60299ZM9.35523 22.1688C9.35523 23.0839 10.0969 23.8258 11.0119 23.8258C11.9264 23.8244 12.6675 23.0836 12.6686 22.1688C12.6686 21.2538 11.927 20.5121 11.0119 20.5121C10.0969 20.5121 9.35523 21.2538 9.35523 22.1688ZM19.33 22.1688C19.33 23.0839 20.0717 23.8258 20.9867 23.8258C21.9012 23.8244 22.6423 23.0836 22.6434 22.1691C22.6437 21.2541 21.9018 20.5121 20.9867 20.5121C20.0717 20.5121 19.33 21.2538 19.33 22.1688ZM24.7117 21.6527C25.1123 21.6524 25.4367 21.3278 25.4372 20.9274V16.6486H17.6627V21.6527H18.3479C18.5947 20.3906 19.7007 19.4798 20.9867 19.4798C22.2727 19.4798 23.3787 20.3906 23.6256 21.6527H24.7117ZM22.3747 12.9965C22.2373 12.847 22.0435 12.7617 21.8401 12.7617H17.6627V15.6163H24.7791L22.3747 12.9965Z" fill="#EF6498"/>
</g>
<defs>
<clipPath id="clip0_2916_19554">
<rect width="32" height="32" fill="white" transform="translate(0 0.333252)"/>
</clipPath>
</defs>
</svg>
