<svg width="20" height="14" viewBox="0 0 20 14" fill="none" xmlns="http://www.w3.org/2000/svg">
<g clip-path="url(#clip0_29323_1333)">
<path d="M0 0.333344H20V4.77779H0V0.333344Z" fill="#EF4444"/>
<path d="M0 4.7778H20V9.22225H0V4.7778Z" fill="#F5F5F5"/>
<path d="M0 9.22223H20V13.6667H0V9.22223Z" fill="#262626"/>
<path d="M11.0961 6.04515C10.8164 6.12814 10.5306 6.18255 10.2431 6.20961V5.11127H9.82568C9.6223 5.11127 9.45298 5.25688 9.41589 5.44962C9.21495 5.48518 9.06234 5.66029 9.06234 5.87126H9.40829V6.20961C9.12071 6.18255 8.83495 6.12814 8.55527 6.04515C8.16707 5.92993 7.77734 6.22055 7.77734 6.62548V8.59721C7.77734 8.82855 8.03483 8.96687 8.22787 8.83919L8.94196 8.16796L8.60878 8.74495C8.51119 8.91428 8.51119 9.11613 8.60878 9.28546C8.70636 9.45478 8.88146 9.55571 9.07693 9.55571H10.5744C10.7699 9.55571 10.9447 9.45478 11.0426 9.28546C11.1402 9.11613 11.1402 8.91428 11.0426 8.74495L10.7094 8.16796L11.4235 8.83919C11.6162 8.96717 11.874 8.82885 11.874 8.59721V6.62548C11.874 6.22055 11.4843 5.92963 11.0961 6.04484V6.04515ZM10.6738 9.07236C10.6638 9.08968 10.6343 9.12981 10.5744 9.12981H9.07693C9.01705 9.12981 8.98725 9.08968 8.97753 9.07236C8.96749 9.05503 8.94773 9.00943 8.97753 8.95744L9.60984 7.86214C9.6749 7.74966 9.78251 7.7375 9.82568 7.7375C9.86885 7.7375 9.97646 7.74966 10.0415 7.86214L10.6738 8.95744C10.7036 9.00912 10.6839 9.05503 10.6738 9.07236Z" fill="#FBBF24"/>
</g>
<defs>
<clipPath id="clip0_29323_1333">
<rect y="0.333344" width="20" height="13.3333" rx="2.96296" fill="white"/>
</clipPath>
</defs>
</svg>
