<svg width="24" height="25" viewBox="0 0 24 25" fill="none" xmlns="http://www.w3.org/2000/svg">
<circle cx="12" cy="12.3333" r="12" fill="#EF6498"/>
<path d="M10.786 16.7808C10.7162 15.8728 10.7161 14.9648 10.6463 13.9869C10.6463 13.498 10.4368 13.1488 9.878 13.1488C9.52877 13.1488 9.17954 13.2186 9.10969 12.7297C9.03985 12.1011 8.90015 11.4026 9.10969 10.774C9.10969 10.7042 9.38908 10.5645 9.52877 10.5645C10.5765 10.774 10.786 10.2152 10.786 9.37709C10.786 7.14202 12.6718 5.95463 15.1164 6.09432C15.8149 6.16417 15.8149 6.72294 15.8149 7.21186C15.7451 7.70078 16.0244 8.39925 15.1164 8.39925C14.3481 8.32941 13.7894 8.60879 13.7894 9.51679C13.7894 10.1454 13.8592 10.6343 14.6275 10.7042C15.7451 10.774 15.5355 11.5423 15.5355 12.3106C15.6054 13.1488 15.1863 13.4281 14.418 13.4281C13.6497 13.4281 13.51 13.8472 13.51 14.5457C13.51 16.0823 13.51 17.5491 13.4401 19.0857C13.3703 20.0635 13.1608 20.1334 11.8337 20.0635C10.9257 20.0635 10.786 19.6445 10.8558 18.8761C10.7161 18.2475 10.7162 17.5491 10.786 16.7808Z" fill="white"/>
</svg>
