<svg width="24" height="21" viewBox="0 0 24 21" fill="none" xmlns="http://www.w3.org/2000/svg">
<path opacity="0.1" d="M4.13062 11.9507L10.3747 19.0078C11.2592 20.0074 12.819 20.0074 13.7034 19.0078L19.9475 11.9507C21.8063 9.84984 22.772 7.20783 21.3754 4.68847C19.7619 1.77763 16.8052 1.18269 14.2358 3.13744C13.3524 3.80951 12.6273 4.57699 12.2732 4.97518C12.1502 5.11354 11.928 5.11354 11.805 4.97518C11.4508 4.57699 10.7257 3.80951 9.84229 3.13744C7.27299 1.18269 4.31623 1.77763 2.7027 4.68847C1.30617 7.20783 2.2718 9.84984 4.13062 11.9507Z" fill="#EF6498"/>
<path d="M4.13062 11.9507L10.3747 19.0078C11.2592 20.0074 12.819 20.0074 13.7034 19.0078L19.9475 11.9507C21.8063 9.84984 22.772 7.20783 21.3754 4.68847C19.7619 1.77763 16.8052 1.18269 14.2358 3.13744C13.3524 3.80951 12.6273 4.57699 12.2732 4.97518C12.1502 5.11354 11.928 5.11354 11.805 4.97518C11.4508 4.57699 10.7257 3.80951 9.84229 3.13744C7.27299 1.18269 4.31623 1.77763 2.7027 4.68847C1.30617 7.20783 2.2718 9.84984 4.13062 11.9507Z" stroke="#EF6498" stroke-width="2.22222" stroke-linejoin="round"/>
</svg>
