<svg width="24" height="25" viewBox="0 0 24 25" fill="none" xmlns="http://www.w3.org/2000/svg">
<path d="M0.000976562 12.3333C0.000976562 18.9607 5.37356 24.3333 12.001 24.3333C18.6284 24.3333 24.001 18.9607 24.001 12.3333C24.001 5.70584 18.6284 0.333252 12.001 0.333252C5.37356 0.333252 0.000976562 5.70584 0.000976562 12.3333Z" fill="#EF6498"/>
<path d="M12.0014 7.23315C13.6514 7.23315 13.8764 7.23315 14.5514 7.23315C15.1514 7.23315 15.4514 7.38315 15.6764 7.45815C15.9764 7.60815 16.2014 7.68315 16.4264 7.90815C16.6514 8.13315 16.8014 8.35815 16.8764 8.65815C16.9514 8.88315 17.0264 9.18315 17.1014 9.78315C17.1014 10.4582 17.1014 10.6082 17.1014 12.3332C17.1014 14.0582 17.1014 14.2082 17.1014 14.8832C17.1014 15.4832 16.9514 15.7832 16.8764 16.0082C16.7264 16.3082 16.6514 16.5332 16.4264 16.7582C16.2014 16.9832 15.9764 17.1332 15.6764 17.2082C15.4514 17.2832 15.1514 17.3582 14.5514 17.4332C13.8764 17.4332 13.7264 17.4332 12.0014 17.4332C10.2764 17.4332 10.1264 17.4332 9.45137 17.4332C8.85137 17.4332 8.55137 17.2832 8.32637 17.2082C8.02637 17.0582 7.80137 16.9832 7.57637 16.7582C7.35137 16.5332 7.20137 16.3082 7.12637 16.0082C7.05137 15.7832 6.97637 15.4832 6.90137 14.8832C6.90137 14.2082 6.90137 14.0582 6.90137 12.3332C6.90137 10.6082 6.90137 10.4582 6.90137 9.78315C6.90137 9.18315 7.05137 8.88315 7.12637 8.65815C7.27637 8.35815 7.35137 8.13315 7.57637 7.90815C7.80137 7.68315 8.02637 7.53315 8.32637 7.45815C8.55137 7.38315 8.85137 7.30815 9.45137 7.23315C10.1264 7.23315 10.3514 7.23315 12.0014 7.23315ZM12.0014 6.10815C10.2764 6.10815 10.1264 6.10815 9.45137 6.10815C8.77637 6.10815 8.32637 6.25815 7.95137 6.40815C7.57637 6.55815 7.20137 6.78315 6.82637 7.15815C6.45137 7.53315 6.30137 7.83315 6.07637 8.28315C5.92637 8.65815 5.85137 9.10816 5.77637 9.78315C5.77637 10.4582 5.77637 10.6832 5.77637 12.3332C5.77637 14.0582 5.77637 14.2082 5.77637 14.8832C5.77637 15.5582 5.92637 16.0082 6.07637 16.3832C6.22637 16.7582 6.45137 17.1332 6.82637 17.5082C7.20137 17.8832 7.50137 18.0332 7.95137 18.2582C8.32637 18.4082 8.77637 18.4832 9.45137 18.5582C10.1264 18.5582 10.3514 18.5582 12.0014 18.5582C13.6514 18.5582 13.8764 18.5582 14.5514 18.5582C15.2264 18.5582 15.6764 18.4082 16.0514 18.2582C16.4264 18.1082 16.8014 17.8832 17.1764 17.5082C17.5514 17.1332 17.7014 16.8332 17.9264 16.3832C18.0764 16.0082 18.1514 15.5582 18.2264 14.8832C18.2264 14.2082 18.2264 13.9832 18.2264 12.3332C18.2264 10.6832 18.2264 10.4582 18.2264 9.78315C18.2264 9.10816 18.0764 8.65815 17.9264 8.28315C17.7764 7.90815 17.5514 7.53315 17.1764 7.15815C16.8014 6.78315 16.5014 6.63315 16.0514 6.40815C15.6764 6.25815 15.2264 6.18315 14.5514 6.10815C13.8764 6.10815 13.7264 6.10815 12.0014 6.10815Z" fill="#FBFBFB"/>
<path d="M12.0014 9.10815C10.2014 9.10815 8.77637 10.5332 8.77637 12.3332C8.77637 14.1332 10.2014 15.5582 12.0014 15.5582C13.8014 15.5582 15.2264 14.1332 15.2264 12.3332C15.2264 10.5332 13.8014 9.10815 12.0014 9.10815ZM12.0014 14.4332C10.8764 14.4332 9.90137 13.5332 9.90137 12.3332C9.90137 11.2082 10.8014 10.2332 12.0014 10.2332C13.1264 10.2332 14.1014 11.1332 14.1014 12.3332C14.1014 13.4582 13.1264 14.4332 12.0014 14.4332Z" fill="#FBFBFB"/>
<path d="M15.3014 9.78315C15.7156 9.78315 16.0514 9.44737 16.0514 9.03315C16.0514 8.61894 15.7156 8.28315 15.3014 8.28315C14.8872 8.28315 14.5514 8.61894 14.5514 9.03315C14.5514 9.44737 14.8872 9.78315 15.3014 9.78315Z" fill="#FBFBFB"/>
</svg>
