<svg width="22" height="22" viewBox="0 0 22 22" fill="none" xmlns="http://www.w3.org/2000/svg">
<g clip-path="url(#clip0_29323_1342)">
<path fill-rule="evenodd" clip-rule="evenodd" d="M20.0547 8.5007C19.9076 6.25981 18.9542 4.14789 17.371 2.55547C15.7401 0.919457 13.5251 0 11.215 0C8.90486 0 6.68981 0.919457 5.05896 2.55547C3.47553 4.14789 2.52237 6.25981 2.37496 8.5007C2.29744 9.7217 2.47743 10.9454 2.90323 12.0922C3.32094 13.2369 4.00424 14.3194 4.93425 15.3103L11.215 22L17.4954 15.3101C18.4255 14.3192 19.109 13.2366 19.5265 12.092C19.9525 10.9452 20.1325 9.72148 20.0547 8.5007ZM11.2125 15.1461C11.1889 15.1461 11.1658 15.1461 11.1422 15.1456C7.49736 15.1065 4.56463 12.0341 4.60462 8.29623C4.61563 6.50787 5.32837 4.79547 6.58914 3.52728C7.82722 2.26966 9.52345 1.56995 11.288 1.58883C13.0523 1.6077 14.7333 2.34381 15.9439 3.62749C17.1773 4.92242 17.8529 6.64988 17.8255 8.43801C17.7853 12.1516 14.8254 15.1461 11.2125 15.1461ZM11.2149 7.57473C12.2314 7.57473 13.0556 6.75076 13.0556 5.73401C13.0556 4.71749 12.2314 3.8933 11.2149 3.8933C10.1984 3.8933 9.37417 4.71749 9.37417 5.73401C9.37417 6.75076 10.1984 7.57473 11.2149 7.57473ZM7.88086 13.3978C7.924 11.5865 9.4034 10.1397 11.2154 10.1375C13.0255 10.1397 14.5042 11.5838 14.5496 13.3935C13.574 14.0842 12.408 14.4554 11.2127 14.4557L11.15 14.4554C9.97817 14.4429 8.83807 14.0741 7.88086 13.3978ZM7.07845 4.01397C8.1853 2.88914 9.70222 2.26291 11.2803 2.27909C12.8588 2.29527 14.3624 2.9543 15.4441 4.10385C17.7556 6.55439 17.6897 10.4014 15.296 12.7715C14.9545 10.7836 13.2302 9.33096 11.2131 9.33186C9.19598 9.33298 7.47301 10.7872 7.1335 12.7755C4.70363 10.3695 4.67892 6.45058 7.07845 4.01397ZM8.56908 5.73402C8.56908 7.19545 9.75368 8.38004 11.2151 8.38004C12.6759 8.37847 13.8596 7.19477 13.8611 5.73402C13.8611 4.27282 12.6765 3.088 11.2151 3.088C9.75368 3.088 8.56908 4.27282 8.56908 5.73402Z" fill="#EF6498"/>
</g>
<defs>
<clipPath id="clip0_29323_1342">
<rect width="22" height="22" fill="white"/>
</clipPath>
</defs>
</svg>
