<svg width="20" height="15" viewBox="0 0 20 15" fill="none" xmlns="http://www.w3.org/2000/svg">
<g opacity="0.4">
<path d="M18 0H2C0.895431 0 0 0.895431 0 2V12.6667C0 13.7712 0.895431 14.6667 2 14.6667H18C19.1046 14.6667 20 13.7712 20 12.6667V2C20 0.895431 19.1046 0 18 0Z" fill="white"/>
<path d="M11.4135 5.13959C11.0385 4.76506 10.5302 4.55469 10.0002 4.55469C9.47019 4.55469 8.96186 4.76506 8.58686 5.13959L0.994603 12.7319C0.5184 13.2081 0.366806 13.9956 0.935753 14.3559C1.25423 14.5576 1.62322 14.6652 2.0002 14.6663H18.0002C18.3772 14.6652 18.7462 14.5576 19.0646 14.3559C19.6336 13.9956 19.482 13.2081 19.0058 12.7319L11.4135 5.13959Z" fill="white"/>
</g>
<path d="M18.0002 -9.15527e-05H2.0002C1.62322 0.000975583 1.25423 0.108562 0.935753 0.310262C0.366806 0.670595 0.5184 1.45811 0.994604 1.93432L8.58686 9.52658C8.96186 9.90111 9.47019 10.1115 10.0002 10.1115C10.5302 10.1115 11.0385 9.90111 11.4135 9.52658L19.0058 1.93432C19.482 1.45811 19.6336 0.670595 19.0646 0.310262C18.7462 0.108562 18.3772 0.000975583 18.0002 -9.15527e-05Z" fill="white"/>
</svg>
