<svg width="32" height="33" viewBox="0 0 32 33" fill="none" xmlns="http://www.w3.org/2000/svg">
<g clip-path="url(#clip0_2916_19507)">
<path fill-rule="evenodd" clip-rule="evenodd" d="M24.9913 18.5964V7.59772L24.5984 7.15969H21.2481C19.5461 7.15783 18.167 5.77841 18.1651 4.07638V0.333226H8.96063C7.87396 0.33447 6.99354 1.21519 6.9923 2.30187V18.5964L15.9918 24.096L24.9913 18.5964ZM9.85442 12.351C9.85442 8.96439 12.5999 6.21862 15.9868 6.21862C19.3735 6.21862 22.1192 8.96439 22.1192 12.351C22.1192 15.738 19.3735 18.4834 15.9868 18.4834C12.6014 18.4797 9.85815 15.7364 9.85442 12.351ZM23.5982 6.04502H21.2481C20.1618 6.04378 19.281 5.16305 19.2801 4.07638V1.23075L23.5982 6.04502ZM10.9694 12.351C10.9694 9.58008 13.2159 7.33362 15.9868 7.33362C18.7566 7.33705 21.0011 9.58132 21.0042 12.351C21.0042 15.1223 18.7578 17.3685 15.9868 17.3685C13.2159 17.3685 10.9694 15.1223 10.9694 12.351ZM15.5152 13.9573L18.4007 11.61C18.5578 11.4849 18.6355 11.2852 18.6044 11.087C18.5733 10.8889 18.438 10.7227 18.2504 10.6518C18.0625 10.5812 17.8513 10.6167 17.6969 10.7451L15.234 12.7489L14.3486 11.712C14.2198 11.5584 14.0185 11.4859 13.8216 11.5217C13.6243 11.5577 13.4616 11.6965 13.3954 11.8856C13.3291 12.0748 13.3692 12.2848 13.5008 12.436L14.7396 13.8869C14.9362 14.1172 15.2806 14.1483 15.5152 13.9573ZM15.7012 25.2249C15.7886 25.2784 15.8894 25.3068 15.9918 25.3068C16.0945 25.3068 16.1953 25.2784 16.2827 25.2249L31.3626 16.0092V29.3507C31.3611 30.9971 30.0271 32.3314 28.3807 32.3333H3.60317C1.95683 32.3314 0.622833 30.9971 0.620966 29.3507V16.0092L15.7012 25.2249ZM5.87731 10.0868L1.11499 12.9732C0.808871 13.1623 0.622211 13.4961 0.620966 13.8558V14.7026L5.87731 17.915V10.0868ZM26.1063 10.0342L30.8674 12.9723C31.1741 13.1614 31.3614 13.4952 31.3626 13.8558V14.7026L26.1063 17.915V10.0342Z" fill="#EF6498"/>
</g>
<defs>
<clipPath id="clip0_2916_19507">
<rect width="32" height="32" fill="white" transform="translate(0 0.333252)"/>
</clipPath>
</defs>
</svg>
