<svg width="28" height="33" viewBox="0 0 28 33" fill="none" xmlns="http://www.w3.org/2000/svg">
<path fill-rule="evenodd" clip-rule="evenodd" d="M12.4669 1.43891C9.79591 1.43891 7.63086 3.60397 7.63086 6.27496V9.3066H6.52519V6.27496C6.52519 2.99345 9.18539 0.33325 12.4669 0.33325C15.7481 0.33325 18.4083 2.99345 18.4083 6.27496V9.3066H17.3027V6.27496C17.3027 3.60397 15.1376 1.43891 12.4669 1.43891ZM20.8578 24.6492C20.8578 23.6244 21.6632 22.7902 22.6535 22.7902C23.6438 22.7902 24.4496 23.6244 24.4496 24.6492C24.4496 25.6744 23.6438 26.5082 22.6535 26.5082C21.6632 26.5082 20.8578 25.6744 20.8578 24.6492ZM16.947 27.1475C16.6548 26.359 16.5314 25.518 16.5854 24.6789C16.686 23.1497 17.3369 21.7087 18.4176 20.6218C19.5371 19.4921 21.0633 18.8588 22.6539 18.8634C22.7853 18.8634 22.9161 18.8689 23.0463 18.8776L21.514 10.2278L21.5122 10.217C21.4319 9.69198 20.9791 9.3045 20.4475 9.30666H18.4083V12.3105C18.4083 12.6159 18.1609 12.8634 17.8555 12.8634C17.5504 12.8634 17.3027 12.6159 17.3027 12.3105V9.30666H7.63088V12.3105C7.63088 12.6159 7.38315 12.8634 7.07804 12.8634C6.77263 12.8634 6.52521 12.6159 6.52521 12.3105V9.30666H4.48602C3.95479 9.3045 3.5016 9.69198 3.42139 10.2174C3.42118 10.2197 3.42067 10.2222 3.42017 10.2246L3.41954 10.2278L0.383895 27.3666C0.411043 28.8431 1.61481 30.0265 3.0916 30.028H18.9732L18.3269 29.3397C17.7232 28.7101 17.2536 27.9641 16.947 27.1475ZM26.1065 21.4023C26.9987 22.2997 27.5358 23.4899 27.6188 24.7526C27.662 25.4381 27.5608 26.1248 27.3217 26.7686C27.0659 27.4452 26.6757 28.0625 26.1741 28.5835L22.6535 32.3333L19.1329 28.5832C18.6315 28.0625 18.241 27.4448 17.9855 26.7683C17.7465 26.1248 17.645 25.4377 17.6885 24.7526C17.7714 23.4899 18.3085 22.2997 19.2004 21.4023C20.1154 20.4845 21.3578 19.969 22.6535 19.969C23.9492 19.969 25.1918 20.4845 26.1065 21.4023ZM19.752 24.6492C19.752 26.284 21.0536 27.6139 22.6535 27.6139C24.2537 27.6139 25.5552 26.284 25.5552 24.6492C25.5552 23.0145 24.2533 21.6845 22.6535 21.6845C21.0536 21.6845 19.752 23.0148 19.752 24.6492Z" fill="#EF6498"/>
</svg>
