<svg width="16" height="17" viewBox="0 0 16 17" fill="none" xmlns="http://www.w3.org/2000/svg">
<path opacity="0.4" d="M15.8179 13.3208C15.8179 13.6326 15.7486 13.9532 15.6013 14.265C15.4541 14.5769 15.2635 14.8714 15.0123 15.1486C14.5878 15.6164 14.12 15.9542 13.5916 16.1708C13.0718 16.3874 12.5001 16.5 11.8937 16.5C11.0101 16.5 10.0659 16.2921 9.06964 15.8676C8.07343 15.4432 7.06856 14.8714 6.08101 14.1524C5.57858 13.7799 5.08485 13.3988 4.6084 12.9829L7.43239 10.1589C7.44106 10.1589 7.44106 10.1589 7.44972 10.1676C7.90018 10.5487 8.27268 10.8086 8.56721 10.9645C8.61052 10.9819 8.6625 11.0078 8.72314 11.0338C8.79244 11.0598 8.86174 11.0685 8.9397 11.0685C9.08697 11.0685 9.19958 11.0165 9.29487 10.9212L9.95324 10.2715C10.1698 10.055 10.3777 9.89036 10.577 9.78641C10.7762 9.66513 10.9754 9.60449 11.192 9.60449C11.3566 9.60449 11.5299 9.63914 11.7204 9.71711C11.911 9.79507 12.1103 9.90769 12.3268 10.055L15.2028 12.0907C15.4281 12.2466 15.584 12.4285 15.6793 12.6451C15.7659 12.8617 15.8179 13.0782 15.8179 13.3208Z" fill="white"/>
<path d="M7.58852 10.2369L4.76448 13.0609C4.75582 13.0609 4.75582 13.0609 4.74716 13.0522C3.8549 12.1513 3.04927 11.2071 2.3216 10.2195C1.61992 9.24932 1.05685 8.27044 0.64104 7.30888C0.632377 7.29155 0.632377 7.28289 0.623714 7.26557C0.207905 6.27802 0 5.33378 0 4.43286C0 3.8438 0.103952 3.28073 0.311857 2.76096C0.485111 2.31917 0.744992 1.90336 1.10016 1.53086C1.1608 1.46156 1.2301 1.3836 1.30807 1.31429C1.44667 1.17569 1.58527 1.05441 1.73254 0.959123C1.7412 0.959123 1.7412 0.959123 1.7412 0.959123C2.17434 0.647266 2.63346 0.5 3.11857 0.5C3.36113 0.5 3.60368 0.551976 3.82025 0.655929C4.02815 0.751218 4.21007 0.889821 4.35734 1.08906C4.37466 1.10639 4.38332 1.12371 4.40065 1.14104L6.4104 3.97374C6.56632 4.19031 6.67894 4.38955 6.7569 4.58013C6.83487 4.76205 6.87818 4.94396 6.87818 5.10855C6.87818 5.31646 6.81754 5.52436 6.69626 5.72361C6.58365 5.92285 6.41906 6.13075 6.21115 6.33866L5.55279 7.02301C5.4575 7.1183 5.41419 7.23092 5.41419 7.36952C5.41419 7.43882 5.42285 7.49946 5.44017 7.56876C5.46616 7.63806 5.49215 7.69004 5.50947 7.74201C5.6654 8.02788 5.93395 8.40038 6.31511 8.85084C6.70493 9.3013 7.12074 9.76042 7.5712 10.2195C7.57986 10.2282 7.57986 10.2282 7.58852 10.2369Z" fill="white"/>
</svg>
