<svg width="11" height="11" viewBox="0 0 11 11" fill="none" xmlns="http://www.w3.org/2000/svg">
<path fill-rule="evenodd" clip-rule="evenodd" d="M5.13788 4.80316V0.57036C5.13788 0.278146 5.37477 0.0412598 5.66698 0.0412598C5.9592 0.0412598 6.19608 0.278146 6.19608 0.57036V4.80316H10.4289C10.7211 4.80316 10.958 5.04005 10.958 5.33227C10.958 5.62448 10.7211 5.86137 10.4289 5.86137H6.19608V10.0942C6.19608 10.3864 5.9592 10.6233 5.66698 10.6233C5.37477 10.6233 5.13788 10.3864 5.13788 10.0942V5.86137H0.905077C0.612863 5.86137 0.375977 5.62448 0.375977 5.33227C0.375977 5.04005 0.612863 4.80316 0.905077 4.80316H5.13788Z" fill="white"/>
</svg>
