<svg width="24" height="24" viewBox="0 0 24 24" fill="none" xmlns="http://www.w3.org/2000/svg">
<path d="M10.5703 0C13.487 0 16.1315 1.17578 18.0483 3.06445C19.9652 4.96289 21.1425 7.57422 21.1425 10.4707C21.1425 12.584 20.5055 14.5586 19.4209 16.2012L23.998 21.1406L20.8408 23.998L16.4273 19.1914C14.751 20.2969 12.7356 20.9434 10.5703 20.9434C7.65359 20.9434 5.00906 19.7676 3.09221 17.8789C1.17734 15.9785 -0.00195312 13.3672 -0.00195312 10.4707C-0.00195312 7.58203 1.18523 4.96289 3.09221 3.06445C5.00906 1.16797 7.64571 0 10.5703 0ZM5.79985 8.24023H6.75433L9.08728 5.65234C9.29435 5.42188 9.65326 5.40234 9.88597 5.60742C10.1187 5.8125 10.1384 6.16797 9.93132 6.39844L8.27085 8.24023H13.3588L11.6983 6.39844C11.4912 6.16797 11.5109 5.8125 11.7437 5.60742C11.9764 5.40234 12.3353 5.42188 12.5423 5.65234L14.8753 8.24219H15.7864H15.7982H16.6541C16.8454 8.24219 17.0031 8.39844 17.0031 8.58789V9.5625C17.0031 9.75195 16.8454 9.9082 16.6541 9.9082H15.9126L15.532 14.668C15.5221 14.7988 15.4215 14.9082 15.2894 14.9082H6.29484C6.16271 14.9082 6.06411 14.8008 6.05228 14.668L5.67167 9.9082H4.93018C4.73888 9.9082 4.58112 9.75195 4.58112 9.5625V8.58789C4.58112 8.39844 4.73888 8.24219 4.93018 8.24219H5.78605L5.79985 8.24023ZM10.2725 10.0918V13.248H11.3867V10.0918H10.2725ZM9.23124 13.25V10.0918H8.14266V13.248H9.23124V13.25ZM12.426 10.0918V13.248H13.5363V10.0918H12.426ZM17.2102 3.89453C15.5123 2.21289 13.1616 1.16797 10.5703 1.16797C7.97898 1.16797 5.62829 2.21289 3.93034 3.89453C2.23239 5.57813 1.17734 7.9043 1.17734 10.4707C1.17734 13.0371 2.23239 15.3652 3.93034 17.0469C5.62829 18.7285 7.97898 19.7734 10.5703 19.7734C13.1616 19.7734 15.5123 18.7285 17.2102 17.0469C18.9082 15.3652 19.9632 13.0371 19.9632 10.4707C19.9632 7.9043 18.9101 5.57813 17.2102 3.89453Z" fill="white"/>
</svg>
