<svg width="32" height="33" viewBox="0 0 32 33" fill="none" xmlns="http://www.w3.org/2000/svg">
<path fill-rule="evenodd" clip-rule="evenodd" d="M21.1525 4.12986V3.3163C21.1528 2.9245 21.0758 2.53649 20.9259 2.17447C20.7761 1.81245 20.5564 1.48351 20.2793 1.20646C20.0023 0.929411 19.6733 0.709691 19.3113 0.559859C18.9493 0.410028 18.5613 0.333024 18.1695 0.333252H2.98305C2.59125 0.333024 2.20324 0.410028 1.84122 0.559859C1.47919 0.709691 1.15025 0.929411 0.873207 1.20646C0.596159 1.48351 0.376439 1.81245 0.226607 2.17447C0.076776 2.53649 -0.000227652 2.9245 0 3.3163V29.3502C-0.000227652 29.742 0.076776 30.13 0.226607 30.492C0.376439 30.8541 0.596159 31.183 0.873207 31.46C1.15025 31.7371 1.47919 31.9568 1.84122 32.1066C2.20324 32.2565 2.59125 32.3335 2.98305 32.3333H18.1695C18.5613 32.3335 18.9493 32.2565 19.3113 32.1066C19.6733 31.9568 20.0023 31.7371 20.2793 31.46C20.5564 31.183 20.7761 30.8541 20.9259 30.492C21.0758 30.13 21.1528 29.742 21.1525 29.3502V22.0282H19.5254V24.1977H1.62712V3.3163C1.62712 2.95669 1.76998 2.6118 2.02426 2.35751C2.27855 2.10323 2.62344 1.96037 2.98305 1.96037H18.1695C18.5291 1.96037 18.874 2.10323 19.1283 2.35751C19.3826 2.6118 19.5254 2.95669 19.5254 3.3163V4.12986H21.1525ZM10.5763 27.4519C10.7372 27.4519 10.8945 27.4996 11.0283 27.589C11.162 27.6784 11.2663 27.8055 11.3279 27.9541C11.3895 28.1028 11.4056 28.2664 11.3742 28.4242C11.3428 28.582 11.2653 28.727 11.1515 28.8407C11.0378 28.9545 10.8928 29.032 10.735 29.0634C10.5772 29.0948 10.4136 29.0787 10.2649 29.0171C10.1163 28.9555 9.98922 28.8512 9.89982 28.7174C9.81043 28.5837 9.76271 28.4264 9.76271 28.2655C9.76427 28.0502 9.85049 27.8441 10.0027 27.6919C10.155 27.5397 10.361 27.4535 10.5763 27.4519ZM29.5587 5.75692H13.2875C12.6405 5.75781 12.0202 6.01524 11.5627 6.47276C11.1051 6.93028 10.8477 7.55056 10.8468 8.1976V10.0959H31.9994V8.1976C31.9985 7.55056 31.741 6.93028 31.2835 6.47276C30.826 6.01524 30.2057 5.75781 29.5587 5.75692ZM10.8468 17.9603V11.723H31.9994V17.9603C31.9984 18.6073 31.7409 19.2275 31.2834 19.685C30.8259 20.1425 30.2057 20.4 29.5587 20.401H13.2875C12.6405 20.4 12.0203 20.1425 11.5628 19.685C11.1053 19.2275 10.8478 18.6073 10.8468 17.9603ZM24.6773 17.1467H27.9316C28.1473 17.1467 28.3543 17.061 28.5068 16.9085C28.6594 16.7559 28.7451 16.549 28.7451 16.3332C28.7451 16.1174 28.6594 15.9105 28.5068 15.7579C28.3543 15.6053 28.1473 15.5196 27.9316 15.5196H24.6773C24.4616 15.5196 24.2546 15.6053 24.1021 15.7579C23.9495 15.9105 23.8638 16.1174 23.8638 16.3332C23.8638 16.549 23.9495 16.7559 24.1021 16.9085C24.2546 17.061 24.4616 17.1467 24.6773 17.1467Z" fill="#EF6498"/>
</svg>
