<svg width="24" height="24" viewBox="0 0 24 24" fill="none" xmlns="http://www.w3.org/2000/svg">
<g clip-path="url(#clip0_2916_19247)">
<path opacity="0.1" d="M22.6438 4.85756C22.6438 6.83 21.0449 8.42899 19.0724 8.42899C17.0999 8.42899 15.501 6.83 15.501 4.85756C15.501 2.88512 17.0999 1.28613 19.0724 1.28613C21.0449 1.28613 22.6438 2.88512 22.6438 4.85756Z" fill="#EF6498"/>
<path opacity="0.1" d="M22.6438 19.1427C22.6438 21.1152 21.0449 22.7141 19.0724 22.7141C17.0999 22.7141 15.501 21.1152 15.501 19.1427C15.501 17.1702 17.0999 15.5713 19.0724 15.5713C21.0449 15.5713 22.6438 17.1702 22.6438 19.1427Z" fill="#EF6498"/>
<path opacity="0.1" d="M8.35575 12.0001C8.35575 13.9726 6.75676 15.5716 4.78432 15.5716C2.81188 15.5716 1.21289 13.9726 1.21289 12.0001C1.21289 10.0276 2.81188 8.42871 4.78432 8.42871C6.75676 8.42871 8.35575 10.0276 8.35575 12.0001Z" fill="#EF6498"/>
<path d="M22.6438 4.85756C22.6438 6.83 21.0449 8.42899 19.0724 8.42899C17.0999 8.42899 15.501 6.83 15.501 4.85756C15.501 2.88512 17.0999 1.28613 19.0724 1.28613C21.0449 1.28613 22.6438 2.88512 22.6438 4.85756Z" stroke="#EF6498" stroke-width="2.38095"/>
<path d="M22.6438 19.1427C22.6438 21.1152 21.0449 22.7141 19.0724 22.7141C17.0999 22.7141 15.501 21.1152 15.501 19.1427C15.501 17.1702 17.0999 15.5713 19.0724 15.5713C21.0449 15.5713 22.6438 17.1702 22.6438 19.1427Z" stroke="#EF6498" stroke-width="2.38095"/>
<path d="M8.35575 12.0001C8.35575 13.9726 6.75676 15.5716 4.78432 15.5716C2.81188 15.5716 1.21289 13.9726 1.21289 12.0001C1.21289 10.0276 2.81188 8.42871 4.78432 8.42871C6.75676 8.42871 8.35575 10.0276 8.35575 12.0001Z" stroke="#EF6498" stroke-width="2.38095"/>
<path d="M8.02441 10.3808L15.4999 6.64307" stroke="#EF6498" stroke-width="2.38095" stroke-linecap="round" stroke-linejoin="round"/>
<path d="M8.00684 13.6113L15.4996 17.3578" stroke="#EF6498" stroke-width="2.38095" stroke-linecap="round" stroke-linejoin="round"/>
</g>
<defs>
<clipPath id="clip0_2916_19247">
<rect width="24" height="24" fill="white"/>
</clipPath>
</defs>
</svg>
