<svg width="17" height="17" viewBox="0 0 17 17" fill="none" xmlns="http://www.w3.org/2000/svg">
<g clip-path="url(#clip0_29323_2080)">
<path fill-rule="evenodd" clip-rule="evenodd" d="M5.16699 14.3333C5.16699 13.597 5.76395 13 6.50033 13C7.23671 13 7.83366 13.597 7.83366 14.3333C7.83366 15.0697 7.23671 15.6667 6.50033 15.6667C5.76395 15.6667 5.16699 15.0697 5.16699 14.3333Z" fill="white"/>
<path fill-rule="evenodd" clip-rule="evenodd" d="M12.5 14.3333C12.5 13.597 13.097 13 13.8333 13C14.5697 13 15.1667 13.597 15.1667 14.3333C15.1667 15.0697 14.5697 15.6667 13.8333 15.6667C13.097 15.6667 12.5 15.0697 12.5 14.3333Z" fill="white"/>
<path fill-rule="evenodd" clip-rule="evenodd" d="M0.5 0.999919C0.5 0.631729 0.798477 0.333252 1.16667 0.333252H3.83333C4.15108 0.333252 4.42467 0.557509 4.48704 0.869081L5.04695 3.66659H15.8333C16.032 3.66659 16.2203 3.7552 16.347 3.90829C16.4736 4.06137 16.5254 4.26297 16.4882 4.45814L15.4206 10.0565C15.3291 10.5169 15.0787 10.9304 14.713 11.2248C14.3492 11.5176 13.8944 11.6739 13.4276 11.6666H6.9591C6.49225 11.6739 6.03747 11.5176 5.67365 11.2248C5.30817 10.9305 5.05776 10.5172 4.96622 10.057C4.96618 10.0568 4.96626 10.0572 4.96622 10.057L3.85253 4.49272C3.84801 4.47431 3.84425 4.45561 3.8413 4.43664L3.28688 1.66659H1.16667C0.798477 1.66659 0.5 1.36811 0.5 0.999919ZM5.31382 4.99992L6.27389 9.79671C6.30437 9.95017 6.38786 10.088 6.50974 10.1861C6.63162 10.2843 6.78413 10.3364 6.94056 10.3334L6.95333 10.3333H13.4333L13.4461 10.3334C13.6025 10.3364 13.755 10.2843 13.8769 10.1861C13.9982 10.0885 14.0815 9.95146 14.1123 9.79885L15.0275 4.99992H5.31382Z" fill="white"/>
</g>
<defs>
<clipPath id="clip0_29323_2080">
<rect width="16" height="16" fill="white" transform="translate(0.5 0.333252)"/>
</clipPath>
</defs>
</svg>
