<svg width="51" height="48" viewBox="0 0 51 48" fill="none" xmlns="http://www.w3.org/2000/svg">
<g clip-path="url(#clip0_29408_548)">
<path d="M25.8027 36.1219L37.4558 42.2531L35.2339 29.2781L44.6652 20.0906L31.6339 18.1969L25.8027 6.38437V0C26.8714 0 27.9402 0.553125 28.4933 1.66875L34.6152 14.0812L48.3121 16.0687C50.7683 16.425 51.7527 19.4531 49.9714 21.1875L40.0621 30.8438L42.4058 44.4844C42.8277 46.9313 40.2496 48.7969 38.0558 47.6438L25.8027 41.2125V36.1219Z" fill="#FDC040"/>
</g>
<g clip-path="url(#clip1_29408_548)">
<path d="M25.959 36.1219L14.3059 42.2531L16.5278 29.2781L7.09653 20.0906L20.1278 18.1969L25.959 6.38437V0C24.8903 0 23.8215 0.553125 23.2684 1.66875L17.1465 14.0812L3.44965 16.0687C0.993404 16.425 0.00902891 19.4531 1.79028 21.1875L11.6997 30.8438L9.3559 44.4844C8.93403 46.9313 11.5122 48.7969 13.7059 47.6438L25.959 41.2125V36.1219Z" fill="#FDC040"/>
</g>
<defs>
<clipPath id="clip0_29408_548">
<rect width="25.08" height="48" fill="white" transform="translate(25.8809)"/>
</clipPath>
<clipPath id="clip1_29408_548">
<rect width="25.08" height="48" fill="white" transform="translate(0.880859)"/>
</clipPath>
</defs>
</svg>
