<svg width="16" height="17" viewBox="0 0 16 17" fill="none" xmlns="http://www.w3.org/2000/svg">
<path d="M4.05441 9.88C4.22707 10.0473 4.30641 10.2893 4.26707 10.5267L3.67441 13.8067C3.62441 14.0847 3.74174 14.366 3.97441 14.5267C4.20241 14.6933 4.50574 14.7133 4.75441 14.58L7.70708 13.04C7.80974 12.9853 7.92374 12.956 8.04041 12.9527H8.22108C8.28374 12.962 8.34507 12.982 8.40107 13.0127L11.3544 14.56C11.5004 14.6333 11.6657 14.6593 11.8277 14.6333C12.2224 14.5587 12.4857 14.1827 12.4211 13.786L11.8277 10.506C11.7884 10.2667 11.8677 10.0233 12.0404 9.85333L14.4477 7.52C14.6491 7.32467 14.7191 7.03133 14.6271 6.76667C14.5377 6.50267 14.3097 6.31 14.0344 6.26667L10.7211 5.786C10.4691 5.76 10.2477 5.60667 10.1344 5.38L8.67441 2.38667C8.63974 2.32 8.59507 2.25867 8.54107 2.20667L8.48108 2.16C8.44974 2.12533 8.41374 2.09667 8.37374 2.07333L8.30107 2.04667L8.18774 2H7.90707C7.65641 2.026 7.43574 2.176 7.32041 2.4L5.84107 5.38C5.73441 5.598 5.52707 5.74933 5.28774 5.786L1.97441 6.26667C1.69441 6.30667 1.46041 6.5 1.36774 6.76667C1.28041 7.034 1.35574 7.32733 1.56107 7.52L4.05441 9.88Z" fill="#D5D5D5"/>
</svg>
