<svg width="16" height="15" viewBox="0 0 16 15" fill="none" xmlns="http://www.w3.org/2000/svg">
<path d="M4.08316 9.33595C4.17199 9.4094 4.23826 9.50646 4.27434 9.61593C4.31042 9.7254 4.31483 9.84283 4.28707 9.95471L3.33785 13.6953L7.28776 11.7757L4.08389 13.8046M4.08316 9.33595L4.56355 8.76L4.56254 8.75915C4.75955 8.92251 4.90655 9.13809 4.98666 9.38119C5.06696 9.62488 5.07679 9.88629 5.015 10.1353L5.01404 10.1392L5.01403 10.1392L4.08389 13.8046M4.08316 9.33595L0.905039 6.68517L4.08316 9.33595ZM4.08389 13.8046L3.99366 13.8617L3.99234 13.8626L3.99128 13.8633L3.98988 13.8641C3.98963 13.8643 3.98951 13.8644 3.98951 13.8644C3.98951 13.8644 3.98965 13.8643 3.98991 13.8642C3.99022 13.864 3.99073 13.8638 3.99142 13.8635C3.9919 13.8633 3.99246 13.863 3.99311 13.8628C3.99368 13.8626 3.9943 13.8623 3.995 13.8621C3.99667 13.8615 3.99873 13.8609 4.00116 13.8602C4.01001 13.858 4.01967 13.8572 4.02884 13.8578C4.04648 13.859 4.05442 13.8648 4.0554 13.8655C4.0564 13.8663 4.05894 13.8684 4.06123 13.8745C4.06181 13.8761 4.06228 13.8777 4.06263 13.8793C4.06274 13.8797 4.06283 13.8802 4.06292 13.8806C4.06318 13.8821 4.06335 13.8834 4.06342 13.8847C4.06359 13.8879 4.06295 13.8871 4.0645 13.881L4.06481 13.8798L4.08389 13.8046ZM7.99957 11.5686C7.74773 11.5686 7.50109 11.6403 7.28849 11.7753L4.56109 8.75795L1.65536 6.33436L5.43739 6.09077C5.69502 6.07523 5.94263 5.98526 6.15017 5.83174C6.3557 5.6797 6.51314 5.47184 6.60383 5.23297L7.99957 1.71824L9.3953 5.23294C9.48599 5.47182 9.64344 5.67969 9.84897 5.83173L10.295 5.22878L9.84897 5.83174C10.0565 5.98526 10.3041 6.07523 10.5618 6.09077C10.5627 6.09083 10.5637 6.09088 10.5646 6.09094L14.3438 6.33436L11.4381 8.75795C11.4375 8.75837 11.437 8.75879 11.4365 8.75922C11.2396 8.92257 11.0926 9.13813 11.0125 9.38119C10.9322 9.62487 10.9224 9.88629 10.9841 10.1353L10.9841 10.1353L10.9852 10.1396L11.9195 13.8126L8.71138 11.7757C8.71124 11.7756 8.71109 11.7755 8.71095 11.7755C8.49828 11.6403 8.25153 11.5686 7.99957 11.5686Z" stroke="#ADB7BC" stroke-width="1.5" stroke-linecap="round" stroke-linejoin="round"/>
</svg>
