<svg width="24" height="25" viewBox="0 0 24 25" fill="none" xmlns="http://www.w3.org/2000/svg">
<path d="M0.000976562 12.3333C0.000976562 5.70584 5.37356 0.333252 12.001 0.333252C18.6284 0.333252 24.001 5.70584 24.001 12.3333C24.001 18.9607 18.6284 24.3333 12.001 24.3333C5.37356 24.3333 0.000976562 18.9607 0.000976562 12.3333Z" fill="#EF6498"/>
<path d="M10.8748 11.0585V10.5914C10.7147 10.57 10.552 10.5566 10.384 10.5566C8.38075 10.554 6.75098 12.1851 6.75098 14.1927C6.75098 15.4234 7.36448 16.5126 8.3034 17.172C7.6979 16.5233 7.32713 15.6503 7.32713 14.6946C7.32713 12.7164 8.91156 11.1039 10.8748 11.0585Z" fill="#25F4EE"/>
<path d="M10.9625 16.355C11.8561 16.355 12.587 15.6423 12.619 14.756L12.6217 6.83514H14.0674C14.038 6.6723 14.022 6.50411 14.022 6.33325H12.0481L12.0455 14.2541C12.0135 15.1404 11.2826 15.8532 10.389 15.8532C10.1116 15.8532 9.85023 15.7837 9.61816 15.6609C9.91691 16.0801 10.4077 16.355 10.9625 16.355Z" fill="#25F4EE"/>
<path d="M16.7698 9.52352V9.08306C16.2177 9.08306 15.7056 8.9202 15.2734 8.63721C15.6575 9.07771 16.1777 9.39808 16.7698 9.52352Z" fill="#25F4EE"/>
<path d="M15.2733 8.63719C14.8518 8.154 14.5984 7.52397 14.5984 6.83521H14.0703C14.2063 7.58804 14.6545 8.2341 15.2733 8.63719Z" fill="#FE2C55"/>
<path d="M10.3867 12.5296C9.47174 12.5296 8.72754 13.2744 8.72754 14.1901C8.72754 14.8281 9.0903 15.3834 9.61844 15.661C9.42106 15.3887 9.30369 15.055 9.30369 14.692C9.30369 13.7763 10.0479 13.0314 10.9628 13.0314C11.1335 13.0314 11.2989 13.0608 11.4536 13.1089V11.0907C11.2935 11.0693 11.1309 11.0559 10.9628 11.0559C10.9335 11.0559 10.9068 11.0586 10.8774 11.0586V12.607C10.7201 12.5589 10.5574 12.5296 10.3867 12.5296Z" fill="#FE2C55"/>
<path d="M16.769 9.52344V11.0585C15.7447 11.0585 14.7952 10.7301 14.0216 10.1748V14.1926C14.0216 16.1975 12.3919 17.8314 10.386 17.8314C9.61242 17.8314 8.89223 17.5857 8.30273 17.172C8.96691 17.8847 9.91383 18.3332 10.9621 18.3332C12.9653 18.3332 14.5978 16.7021 14.5978 14.6945V10.6767C15.3713 11.232 16.3209 11.5604 17.3452 11.5604V9.58486C17.1451 9.58486 16.9531 9.56348 16.769 9.52344Z" fill="#FE2C55"/>
<path d="M14.0223 14.1927V10.1749C14.7958 10.7302 15.7454 11.0585 16.7697 11.0585V9.52351C16.1775 9.39807 15.6574 9.0777 15.2733 8.63719C14.6544 8.2341 14.209 7.58804 14.0676 6.83521H12.6219L12.6192 14.756C12.5872 15.6423 11.8563 16.3551 10.9628 16.3551C10.408 16.3551 9.91984 16.0801 9.61576 15.6637C9.08762 15.3834 8.72486 14.8308 8.72486 14.1927C8.72486 13.277 9.46906 12.5322 10.384 12.5322C10.5547 12.5322 10.7201 12.5615 10.8748 12.6096V11.0612C8.91158 11.1039 7.32715 12.7164 7.32715 14.6946C7.32715 15.6503 7.69792 16.5206 8.30341 17.172C8.8929 17.5858 9.6131 17.8314 10.3866 17.8314C12.3899 17.8314 14.0223 16.1976 14.0223 14.1927Z" fill="#FBFBFB"/>
</svg>
