<svg width="24" height="25" viewBox="0 0 24 25" fill="none" xmlns="http://www.w3.org/2000/svg">
<path d="M0 12.3333C0 18.9607 5.37258 24.3333 12 24.3333C18.6274 24.3333 24 18.9607 24 12.3333C24 5.70584 18.6274 0.333252 12 0.333252C5.37258 0.333252 0 5.70584 0 12.3333Z" fill="#EF6498"/>
<path d="M13.1416 11.4144L17.6089 6.33325H16.5503L12.6714 10.7452L9.57328 6.33325H6L10.6849 13.0049L6 18.3333H7.05866L11.1549 13.6741L14.4267 18.3333H18L13.1414 11.4144H13.1416ZM11.6916 13.0636L11.217 12.3993L7.44011 7.11306H9.06615L12.1141 11.3792L12.5888 12.0436L16.5508 17.5889H14.9248L11.6916 13.0639V13.0636Z" fill="#FBFBFB"/>
</svg>
