<svg width="24" height="25" viewBox="0 0 24 25" fill="none" xmlns="http://www.w3.org/2000/svg">
<g clip-path="url(#clip0_29408_276)">
<rect y="0.333252" width="24" height="24" rx="12" fill="white"/>
<path d="M10.4014 14.6442L14.3295 12.338L10.4014 10.0317V14.6442Z" fill="#EF6498"/>
<path d="M12 0.333252C5.37188 0.333252 0 5.70513 0 12.3333C0 18.9614 5.37188 24.3333 12 24.3333C18.6281 24.3333 24 18.9614 24 12.3333C24 5.70513 18.6281 0.333252 12 0.333252ZM18 14.4801C18 16.5473 15.9328 16.5473 15.9328 16.5473H8.06719C6 16.5473 6 14.4801 6 14.4801V10.1911C6 8.12388 8.06719 8.12388 8.06719 8.12388H15.9328C18 8.12388 18 10.1911 18 10.1911V14.4801Z" fill="#EF6498"/>
</g>
<defs>
<clipPath id="clip0_29408_276">
<rect y="0.333252" width="24" height="24" rx="12" fill="white"/>
</clipPath>
</defs>
</svg>
